<svg width="75" height="74" viewBox="0 0 75 74" fill="none" xmlns="http://www.w3.org/2000/svg">
<path d="M67.9337 12.029C66.0051 8.95975 62.6894 7.30061 59.506 6.4033C59.5971 6.01995 49.8234 3.34131 49.6575 3.89276L45.9725 0L34.6494 7.7964L28.2871 2.05218L25.3316 3.44292C25.452 2.75119 16.157 4.88683 16.157 4.88683C14.3816 4.97148 12.1137 5.11899 9.57494 5.37778C0.684836 6.28476 0 36.8198 0 36.8198C4.09033 34.6007 8.45156 33.3898 12.8696 33.2463L15.2725 69.7674C27.6314 68.3622 40.5932 69.9972 54.0282 74L60.3285 45.291L75 37.7244C75 37.7244 72.4932 19.2836 67.9337 12.029Z" fill="#3F3D56"/>
</svg>
